# xmcd CD database file
#
# Track frame offsets:
#	150
#	17530
#	35279
#	46237
#	63248
#	77619
#	93899
#	113146
#	130924
#	142230
#	161916
#	173988
#	187753
#	201609
#	214350
#	231487
#	246945
#	259714
#
# Disc length: 3586 seconds
#
# Revision: 2
# Processed by: cddbd v1.5.2PL0 Copyright (c) Steve Scherf et al.
# Submitted via: CDex 1.51
#
DISCID=020e0012
DTITLE=Alan Jackson - Especial
DYEAR=2004
DGENRE=Country
TTITLE0=I'll Try
TTITLE1=Chattahoochee
TTITLE2=Tall, Tall Trees
TTITLE3=Livin' On Love
TTITLE4=Summetime Blues
TTITLE5=Mercury Blues
TTITLE6=Gone Country
TTITLE7=I'll Go On Loving You
TTITLE8=Revenooer Man
TTITLE9=Another Good Reason
TTITLE10=She Just Started Loking Cheatin' Songs
TTITLE11=Pop a Top
TTITLE12=Chasin' That Neon Rainbow
TTITLE13=Don't Rock The Jukebox
TTITLE14=I Don't even Know Your Name
TTITLE15=(Who Say) You Can't Have It All
TTITLE16=Loves's Got A Hold On You
TTITLE17=Kiss An Angel Good Mornin'
EXTD=YEAR: 2004
EXTT0=
EXTT1=
EXTT2=
EXTT3=
EXTT4=
EXTT5=
EXTT6=
EXTT7=
EXTT8=
EXTT9=
EXTT10=
EXTT11=
EXTT12=
EXTT13=
EXTT14=
EXTT15=
EXTT16=
EXTT17=
PLAYORDER=
